<svg width="224" height="43" viewBox="0 0 224 43" fill="none" xmlns="http://www.w3.org/2000/svg">
<path d="M10.8579 25.1645C10.9553 25.2572 11.0636 25.3498 11.161 25.431C12.3732 26.5201 12.5247 26.4853 13.1958 24.9791C13.7911 23.635 13.8344 23.6234 14.9276 24.4461C16.5403 25.6627 16.5294 25.6511 17.6875 23.9015C18.1962 23.1368 18.1746 22.5574 17.4061 22.0592C17.1788 21.9086 16.9624 21.7464 16.7567 21.5726C15.3713 20.4371 15.3713 20.4371 14.4621 22.036C13.8452 23.1252 13.856 23.102 12.8603 22.2794C12.3732 21.8738 11.9836 21.3177 11.4316 21.0859C11.161 21.0743 10.9986 21.1786 10.8579 21.3293C9.505 22.7081 9.51583 23.8783 10.8579 25.1645Z" fill="white"/>
<path d="M6.43121 24.4461C6.63686 24.1101 6.84251 23.9826 7.24297 24.1101C8.39026 24.4693 8.84485 24.0521 8.81238 22.5342C8.50932 21.2944 7.89238 20.0314 6.7451 19.1508C6.26886 18.78 5.68439 18.9075 5.48957 19.4753C5.05663 20.6919 4.85099 22.0244 5.41381 23.2295C5.69522 23.832 5.59781 24.1217 5.21898 24.4809C4.24487 25.3846 3.21664 26.2073 2.14512 26.9837C1.539 27.4124 0.987004 27.9106 0.413359 28.3973C0.261831 28.5247 0.0886554 28.7101 0.229361 28.9303C0.380889 29.162 0.586536 29.023 0.759711 28.9187C1.38747 28.5363 2.01523 28.1423 2.643 27.76C4.09334 26.891 5.50039 25.9872 6.43121 24.4461Z" fill="white"/>
<path d="M0.716378 19.3594C1.22508 18.9771 1.72296 18.5483 2.25331 18.2007C4.39636 16.7871 6.46364 15.2924 7.84905 12.9518C8.06552 12.581 8.30363 12.4767 8.66081 12.7085C8.8881 12.8591 9.14786 13.0097 9.37516 12.7201C9.59163 12.4304 9.74315 11.9669 9.53751 11.7352C8.77986 10.9125 8.97469 9.8233 8.7474 8.86157C8.61751 8.35174 8.40104 7.8535 7.84905 7.89985C6.99399 7.96937 6.71258 8.75729 6.40952 9.4641C6.14976 10.0666 5.82506 10.6576 6.40952 11.3064C7.37281 12.384 7.34034 12.4188 6.35541 13.4964C4.94836 15.0491 3.25989 16.2425 1.69049 17.5866C1.12767 18.0733 0.618967 18.6294 0.09944 19.174C0.0236757 19.2551 -0.00879404 19.4289 0.00202943 19.5564C0.00202943 19.6028 0.142734 19.6607 0.240145 19.7186C0.391674 19.6028 0.554026 19.4869 0.716378 19.3594Z" fill="white"/>
<path d="M9.08294 17.7372C9.28858 17.9806 9.50505 17.7488 9.68905 17.6098C10.1761 17.2506 10.6956 16.9146 11.1394 16.4974C12.6655 15.0606 14.5921 14.0873 15.5229 11.99C15.6853 11.6308 15.945 11.5845 16.2697 11.7467C16.9516 12.0711 17.049 11.5497 17.1789 11.0051C17.1572 10.8893 17.1572 10.6923 17.0815 10.6343C16.2048 10.055 16.313 9.09326 16.2156 8.18946C16.1723 7.85344 16.01 7.51741 15.8368 7.21614C15.4471 6.52092 14.9709 6.5325 14.473 7.10027C14.0834 7.55217 13.9643 8.16629 13.7587 8.72247C13.3149 9.90435 13.4123 10.3099 14.4189 10.8777C15.0034 11.2021 14.9384 11.4918 14.5921 11.9205C13.9102 12.7895 13.1201 13.5311 12.3083 14.2611C11.2801 15.1765 10.2843 16.1035 9.28858 17.0304C9.10458 17.2042 8.82317 17.436 9.08294 17.7372Z" fill="white"/>
<path d="M12.5681 2.69742C12.7845 2.8017 12.9685 2.69742 13.0226 2.44251C13.1742 1.75888 13.0335 1.16795 12.4165 0.808754C11.7996 0.449559 11.4424 0.79717 11.161 1.37652C10.8255 2.06014 10.9662 2.82488 10.7605 3.71707C10.0787 3.1609 9.6782 2.46568 9.01797 2.11808C8.67162 1.93268 8.31445 1.58508 7.9248 1.88634C7.54598 2.1876 7.52433 2.68584 7.57845 3.14931C7.63257 3.64755 7.76245 4.27324 8.30362 4.26166C9.59161 4.26166 10.2518 5.10751 10.8471 6.12716C10.9662 6.33572 11.1285 6.56746 11.3883 6.50952C11.7238 6.42841 11.7022 6.09239 11.7022 5.81431C11.6914 5.07274 11.6156 4.33118 11.6481 3.58962C11.6914 3.05662 11.5831 2.21077 12.5681 2.69742Z" fill="white"/>
<path d="M16.2914 40.1469C15.6745 40.3092 15.7394 39.8572 15.8693 39.498C16.1182 38.8142 16.4429 38.1653 16.7243 37.4931C16.7893 37.3425 16.8542 37.1339 16.6702 37.018C16.4971 36.9021 16.3455 37.0527 16.2806 37.215C15.826 38.2232 15.1874 39.1503 15.0034 40.2744C14.906 40.8886 14.9709 41.5839 15.642 41.723C16.2806 41.8621 16.4754 41.1552 16.7027 40.6684C16.8867 40.2744 16.8326 39.9731 16.2914 40.1469Z" fill="white"/>
<path d="M72.1838 25.1181C72.108 24.84 72.0106 24.5619 72.2704 24.3418C72.7358 23.9594 72.5842 23.5075 72.3569 23.1136C71.924 22.3604 71.4478 21.6305 70.9715 20.9121C70.7875 20.6224 70.4304 20.3906 70.3005 20.8541C70.0407 21.7811 69.4779 22.6849 69.7593 23.7045C70.5711 26.6476 71.1122 29.695 72.5085 32.4295C72.6816 32.7655 72.7141 33.0668 72.3894 33.368C71.4478 34.2486 70.268 34.3993 69.164 33.7504C67.7461 32.9161 66.9777 31.6416 66.8586 29.9151C66.7937 28.9998 66.7612 28.0728 66.6422 27.169C66.3932 25.2803 66.2525 23.3685 65.5706 21.5725C65.4732 21.306 65.3866 21.0048 65.0511 21.0163C64.7048 21.0279 64.6723 21.3524 64.5749 21.6073C64.077 22.9166 63.9579 24.2028 64.2718 25.6395C64.7264 27.7252 65.0944 29.8688 64.6182 32.0355C64.2177 33.8315 62.3885 35.2335 60.7758 35.0134C59.2281 34.7932 58.1674 33.2753 58.1566 31.294C58.1566 30.5061 58.2648 29.7413 58.4704 28.9882C58.8168 27.76 58.9791 26.5086 59.1198 25.234C59.1631 24.8516 59.1415 24.4113 58.7194 24.2375C58.3514 24.0869 58.0916 24.3766 57.8643 24.6199C57.2366 25.2688 56.7928 26.0567 56.5222 26.9489C56.1217 28.2929 55.7862 29.6602 55.5156 31.0506C55.2342 32.499 55.0069 33.9822 54.2168 35.2567C53.3942 36.5776 52.2902 36.5776 51.4893 35.2104C51.262 34.828 51.1321 34.3761 50.9698 33.959C50.4178 32.5454 50.7641 31.1086 50.8399 29.6602C50.9914 26.9836 50.3853 24.6083 48.3722 22.8123C47.3006 21.8506 46.4672 21.7927 45.3416 22.6965C44.3025 23.5307 43.7938 24.7473 43.6423 26.0567C43.3176 28.8491 44.335 29.9962 46.9651 29.9962C47.4305 29.9962 47.8959 30.0194 48.3505 30.1005C48.7077 30.1585 49.0973 30.2743 49.238 30.6799C49.3896 31.1318 49.0324 31.3867 48.7834 31.6532C47.4089 33.1247 45.9802 34.5731 44.3891 35.7665C42.6898 37.0527 40.8823 38.1766 38.696 38.2577C36.4663 38.3388 35.1459 36.4849 35.7628 34.2023C36.0767 33.0552 36.3256 31.8733 36.488 30.6915C36.5746 30.0542 36.7478 29.6602 37.3322 29.4285C38.328 29.0345 38.9557 28.2582 39.248 27.1574C39.3779 26.6592 39.5294 26.1609 39.919 25.7322C40.1788 26.0567 40.2004 26.3463 40.1788 26.6824C40.168 26.9836 40.0814 27.4123 40.4818 27.4471C40.8065 27.4819 40.8174 27.0647 40.8823 26.8098C41.0663 26.0219 41.207 25.2224 41.391 24.4345C41.5425 23.7625 41.3585 23.1715 41.0014 22.6269C40.655 22.0939 40.2978 22.0244 39.919 22.6038C39.5294 23.1831 39.3454 23.8783 39.0748 24.5156C38.2089 26.5201 36.3365 26.7519 35.1134 25.037C34.9619 24.8169 34.8645 24.4924 34.5398 24.5388C34.2259 24.5851 34.2042 24.9327 34.0852 25.1761C33.2951 26.7635 33.9553 28.0265 34.7346 29.3705C35.7628 31.1318 35.6762 31.5373 34.3233 32.9277C31.7906 35.5464 28.9873 37.6668 25.3506 38.1303C22.9587 38.4315 21.4867 36.6819 22.0278 34.1675C22.1361 33.6693 22.2443 33.3912 22.8071 33.6345C23.7596 34.0285 24.7554 33.9822 25.7295 33.6925C28.089 32.9857 29.9831 31.4678 31.7365 29.7297C34.0202 27.4703 33.5007 22.7196 30.7732 21.0859C29.6476 20.4138 28.4678 19.8461 27.3313 19.2204C26.5737 18.8032 25.8918 18.2934 25.2857 17.5982C25.6645 17.4012 26.1732 17.575 26.2057 17.0188C26.2382 16.5438 25.8377 16.3584 25.5238 16.1962C24.5497 15.6748 23.5431 15.2229 22.569 14.7015C21.4434 14.1105 21.4326 13.9715 22.4283 13.2299C27.2556 9.66113 32.3859 6.67169 37.8085 4.28478C38.8367 3.83288 39.9623 3.62432 41.0447 3.33464C41.4776 3.21877 41.9214 3.35782 42.2136 3.75178C42.5383 4.20367 42.127 4.5281 41.9538 4.8873C41.4235 5.94171 40.8066 6.96136 40.3628 8.06212C39.8649 9.29034 39.432 10.5649 39.2804 11.909C39.248 12.2218 39.2155 12.6042 39.6268 12.6621C39.9623 12.7085 40.0814 12.3725 40.1247 12.106C40.4061 10.3911 41.3477 8.98908 42.0621 7.48277C42.9063 5.67521 43.7397 3.85606 43.6856 1.7704C43.6531 0.437904 43.1119 -0.118267 41.8673 0.0207762C40.6442 0.15982 39.4753 0.600124 38.3604 1.12154C34.1285 3.12608 29.9831 5.33919 26.065 7.96943C23.9652 9.38304 21.4001 10.2984 20.5559 13.2994C20.2853 11.4455 20.0796 9.66113 19.9173 7.86515C19.7224 5.82584 19.5926 3.77495 18.9323 1.82834C18.8674 1.63136 18.8349 1.38804 18.6076 1.35328C18.4236 1.31852 18.2938 1.48073 18.2396 1.64295C17.8716 2.72054 17.2655 3.74019 17.5469 4.99158C18.4561 9.03543 18.6401 13.172 18.8566 17.3085C19.0081 20.1705 19.073 23.0325 19.3003 25.8829C19.4735 28.0728 19.7874 30.2512 21.0429 32.1167C21.3027 32.5106 21.2377 32.9161 21.162 33.3449C20.9671 34.492 20.794 35.6507 20.8481 36.821C21.0321 40.4593 23.2617 42.2668 26.5629 41.421C28.6626 40.8764 30.4269 39.6482 32.0937 38.2346C32.873 37.5741 33.6089 36.8673 34.5614 36.0099C34.4424 37.5278 34.7129 38.6865 35.2325 39.7756C35.8386 41.0502 36.8235 41.8265 38.144 41.8149C39.432 41.7918 40.7091 41.5137 41.8781 40.8532C43.9021 39.7061 45.7312 38.2461 47.3872 36.566C48.199 35.7434 49.0216 34.9207 49.8441 34.0864C50.0173 34.6542 50.1364 35.2104 50.342 35.7202C50.5585 36.2648 50.8074 36.821 51.1321 37.3076C52.4959 39.3353 54.1952 39.1963 55.2883 36.9716C55.7862 35.9635 56.0135 34.8512 56.1867 33.7272C56.4356 32.2093 56.7603 30.7146 57.518 29.3821C57.4206 29.9035 57.3232 30.4134 57.2366 30.9348C56.9227 32.696 56.8686 34.4456 57.5071 36.1489C58.1241 37.7943 59.2281 38.6169 60.8732 38.5242C62.5942 38.42 63.6657 37.2381 64.5208 35.7781C65.1052 34.7932 65.2892 33.6461 65.6247 32.3136C65.8304 32.9393 65.9603 33.3333 66.0902 33.7272C66.4149 34.7005 66.8586 35.6043 67.5405 36.3575C69.4563 38.4663 72.1946 38.0028 73.2769 35.3031C74.2294 32.9277 74.3593 30.4945 73.2228 28.1192C72.7466 27.1574 72.4652 26.1378 72.1838 25.1181ZM48.6752 27.8642C48.6752 27.8642 48.502 27.3312 47.3872 27.3544C46.175 27.3776 45.3416 27.0532 45.4498 26.1725C45.5472 25.2919 46.4239 24.9096 47.6362 25.373C48.8484 25.8365 49.1081 26.8214 48.6752 27.8642ZM20.6208 23.1252C20.6208 21.8506 20.5234 20.5876 20.4584 19.232C20.5991 18.7105 20.0904 17.8299 20.6749 17.5634C21.1728 17.3317 21.7248 18.0617 22.1361 18.4788C24.6038 20.9932 27.4612 22.8587 30.5351 24.3881C30.7083 24.4808 30.8814 24.5967 31.0438 24.7126C32.2993 25.6859 32.2777 26.0103 31.0871 27.0531C29.5934 28.3741 27.9807 29.4401 26.0975 29.9846C23.5648 30.7146 21.833 29.637 21.1836 26.8793C20.9022 25.6627 20.6208 24.4229 20.6208 23.1252Z" fill="white"/>
<path d="M176.338 8.83843C178.47 13.1024 181.219 16.8913 184.185 20.5065C186.328 23.1251 188.514 25.709 189.77 29.0229C190.095 29.8803 189.911 30.8188 190.333 31.5952C190.614 32.1166 190.528 32.4989 190.279 32.974C189.337 34.7236 188.146 36.2299 186.685 37.5045C185.473 38.5589 184.272 39.6249 182.994 40.5866C182.713 40.7952 182.269 41.0733 182.497 41.5136C182.745 42.0118 183.146 41.6063 183.449 41.4672C184.683 40.8531 185.949 40.2969 187.129 39.5786C188.352 38.837 189.705 38.304 190.528 36.902C191.653 34.967 192.173 32.8234 192.692 30.5407C192.909 31.5256 193.104 32.4294 193.298 33.3216C193.439 33.9473 193.569 34.6194 194.034 35.0481C195.117 36.0793 195.138 37.1105 194.272 38.3156C193.915 38.8138 193.645 39.4163 193.558 40.0652C193.493 40.633 193.656 41.1196 194.099 41.4672C194.37 41.6758 194.684 41.699 194.933 41.4788C195.376 41.0849 195.701 40.5982 195.853 39.9841C195.907 39.7639 195.918 39.5438 195.712 39.4163C195.528 39.3121 195.398 39.4511 195.279 39.567C195.117 39.7292 194.965 40.0189 194.716 39.7408C194.521 39.5322 194.608 39.2657 194.727 39.0456C194.998 38.5589 195.322 38.0954 195.55 37.5856C195.755 37.1105 196.004 36.9715 196.48 37.1105C197.649 37.4466 198.688 37.0758 199.717 36.4501C200.442 36.0098 200.853 35.1755 201.557 34.6889C202.347 36.4153 203.343 37.2148 204.382 36.9252C205.659 36.566 206.59 35.7201 207.239 34.3297C207.888 35.6738 208.722 36.3922 210.042 36.0793C211.341 35.7665 211.72 34.5035 212.294 33.3795C212.672 33.8546 212.954 34.2949 213.311 34.6541C214.577 35.975 215.909 35.8592 216.926 34.3413C218.117 32.5685 218.279 30.506 218.301 28.4319C218.344 23.438 217.391 18.5251 217.023 13.5659C216.894 11.7352 216.699 9.91601 216.536 8.08528C216.612 8.06211 216.699 8.05052 216.774 8.02734C216.872 8.12004 216.969 8.21274 217.067 8.30543C217.316 8.54876 217.446 9.12811 217.9 8.79209C218.279 8.52559 218.052 8.07369 217.933 7.7145C217.565 6.61374 217.175 5.51298 216.785 4.42381C216.471 3.52003 216.331 2.55832 215.909 1.70088C215.692 1.27217 215.422 1.13312 215.205 1.61977C214.837 2.47721 214.296 3.34623 214.437 4.33112C214.989 8.16639 214.87 12.0596 215.432 15.9065C215.876 18.9886 215.887 22.1402 216.266 25.2571C216.471 26.9836 216.58 28.7332 216.699 30.4712C216.731 30.9579 216.774 31.5372 216.244 31.769C215.757 31.9775 215.259 31.8848 214.815 31.572C214.296 31.2128 213.906 30.7377 213.755 30.0773C213.679 29.7644 213.603 29.4168 213.214 29.4284C212.91 29.44 212.781 29.7181 212.662 29.9846C212.434 30.4944 212.229 31.0274 211.969 31.5256C211.493 32.4178 210.432 32.9161 209.685 32.6148C208.711 32.2093 208.776 31.4445 209.101 30.5871C209.176 30.3901 209.198 30.1468 209.003 29.9962C208.754 29.8108 208.527 29.9962 208.397 30.1816C207.932 30.7841 207.466 31.3866 207.066 32.0471C206.535 32.9161 205.756 33.2289 204.869 33.31C203.732 33.4143 203.094 32.6959 203.267 31.5256C203.31 31.2476 203.472 30.9463 203.159 30.7609C202.888 30.6103 202.628 30.7957 202.433 30.9695C201.881 31.4793 201.351 32.0239 200.799 32.5221C198.234 34.8163 195.214 33.6808 194.532 30.1816C194.5 30.0078 194.467 29.834 194.435 29.6601C193.915 26.1957 194.272 22.6964 193.991 19.2203C193.634 14.8289 193.612 10.4027 193.114 6.02281C192.952 4.6092 192.681 3.21877 192.443 1.81675C192.4 1.58501 192.346 1.29534 192.064 1.23741C191.772 1.17947 191.664 1.44597 191.577 1.67771C191.231 2.59308 190.733 3.49686 190.787 4.51651C190.885 6.28931 191.004 8.0737 191.199 9.83491C191.805 15.1417 192.086 20.4601 192.086 25.8017C192.086 27.5397 191.805 29.2314 191.004 30.8073C191.177 28.9997 190.939 27.2732 190.354 25.57C189.424 22.8586 187.735 20.7034 185.982 18.6178C183.849 16.0687 181.771 13.4848 179.888 10.7271C179.271 9.82332 178.773 8.82685 178.189 7.8072C178.665 7.70291 178.914 7.89989 179.195 7.99258C179.477 8.08528 179.791 8.27067 179.985 7.87672C180.137 7.56387 179.921 7.34372 179.726 7.14674C178.265 5.69837 176.933 4.09937 175.234 2.96385C174.942 2.76688 174.671 2.50038 174.411 2.98703C174.162 3.46209 174.346 5.89535 174.704 6.2893C175.385 7.05404 175.883 7.93465 176.338 8.83843Z" fill="white"/>
<path d="M79.0783 19.3825C81.3837 17.7372 83.7324 16.1266 85.475 13.7512C85.6914 13.45 85.8971 13.2994 86.3084 13.4384C86.882 13.6238 87.4773 12.9633 87.1418 12.5462C86.4166 11.6308 86.579 10.5764 86.395 9.56835C86.2975 9.04693 86.0053 8.44441 85.41 8.60663C84.5983 8.82678 84.2952 9.63787 84.003 10.4026C83.7649 11.0399 83.8514 11.654 84.3601 12.0248C85.1611 12.6041 84.9879 13.0329 84.4034 13.6817C82.7691 15.5009 80.7992 16.8797 79.035 18.5251C78.851 18.6989 78.6995 19.0465 78.3964 18.9074C78.1042 18.78 78.2016 18.4208 78.1475 18.1543C77.6821 15.4314 77.5306 12.6852 77.3466 9.92755C77.2924 9.16281 77.0435 8.39806 77.26 7.54063C77.6929 7.7376 77.812 8.47917 78.2774 8.14315C78.6562 7.86506 78.3964 7.34365 78.2774 6.96128C77.747 5.17688 77.2059 3.39249 76.643 1.61969C76.5456 1.29525 76.4157 0.889709 76.0153 0.889709C75.6581 0.889709 75.5823 1.28367 75.4633 1.56175C75.0195 2.69728 74.7706 3.82121 74.9113 5.13054C75.3659 9.41772 75.5607 13.7281 76.0477 18.0037C76.6755 23.4727 77.7578 28.8954 77.4981 34.4456C77.4873 34.7121 77.4223 35.0829 77.747 35.1755C78.1475 35.2914 78.2233 34.8859 78.3315 34.6078C79.0458 32.7307 78.9809 30.7262 79.1 28.7564C79.2623 26.1261 78.7753 23.5422 78.4073 20.9583C78.3207 20.2631 78.4722 19.8112 79.0783 19.3825Z" fill="white"/>
<path d="M17.6768 26.6012C17.3737 26.6939 17.3413 27.0299 17.2871 27.2964C17.0598 28.571 16.7243 29.7876 17.8824 30.8884C18.6076 31.5721 18.4344 31.9892 17.5469 32.4759C15.393 33.6693 14.2566 33.3333 13.0227 31.1318C12.1135 29.5096 11.3992 29.3821 10.0138 30.5756C8.16295 32.163 7.31871 34.3761 6.73425 36.7283C6.53942 37.4931 6.25801 38.1883 5.80343 38.814C5.1432 39.7178 4.23402 39.7757 3.54132 38.9183C2.88109 38.0956 2.41568 37.1686 2.39403 36.0563C2.37239 35.1409 2.23168 34.2371 2.36156 33.3101C2.40486 32.9741 2.52392 32.4063 2.03686 32.3484C1.61474 32.302 1.64721 32.8351 1.5931 33.1595C1.48486 33.82 1.43075 34.492 1.38745 34.8744C1.45239 37.4351 1.76627 39.5903 3.44391 41.2473C4.54791 42.3365 5.69519 42.2322 6.55025 40.946C7.0373 40.216 7.35118 39.4165 7.56765 38.5475C7.93565 37.1107 8.40106 35.7434 9.39682 34.6195C10.7389 33.1016 11.1935 33.1016 12.2542 34.8512C13.802 37.4235 17.1789 37.3772 18.6942 34.7237C20.1662 32.1282 19.7224 29.3821 18.3045 27.0183C18.153 26.7982 18.0015 26.5085 17.6768 26.6012Z" fill="white"/>
<path d="M119.915 3.16071C120.651 2.87104 121.009 2.29168 121.073 1.48059C121.149 0.936002 120.922 0.750613 120.446 0.912832C120.099 1.0287 119.753 1.15616 119.417 1.30679C116.127 2.77834 112.848 4.24989 109.557 5.73303C107.468 6.68317 105.336 7.54061 103.29 8.62979C101.634 9.5104 100 10.4374 98.3009 11.1905C94.6966 12.7895 91.2981 14.8288 87.8887 16.8334C87.2934 17.181 86.6656 17.5634 86.4383 18.3513C86.3301 18.7221 86.092 19.1276 86.3734 19.4521C86.7197 19.8576 87.0444 19.4057 87.3367 19.2435C89.3715 18.0616 91.3305 16.7407 93.4086 15.6863C97.8787 13.4384 102.306 11.0747 106.884 9.08169C111.278 7.18141 115.489 4.91035 119.915 3.16071Z" fill="white"/>
<path d="M70.8417 1.09824C70.6685 0.843328 70.4304 0.912853 70.2139 1.02872C69.6727 1.29522 69.1532 1.59648 68.6012 1.82822C64.5208 3.47357 60.581 5.47813 56.6737 7.5522C53.1561 9.41771 49.606 11.2253 46.1317 13.1835C42.6574 15.1533 39.183 17.1115 35.8602 19.3478C35.3624 19.6838 35.1784 20.1936 35.0809 20.7498C35.0376 20.9815 35.0268 21.2712 35.4381 21.2596C35.6438 21.1437 35.8819 21.0279 36.1092 20.8888C36.9967 20.3442 37.8734 19.7765 38.7609 19.2435C45.1251 15.4198 51.695 12.0132 58.2323 8.56027C61.8149 6.67159 65.4949 5.01464 69.1532 3.2766C69.8784 2.92899 70.4737 2.51185 70.7875 1.68918C70.8525 1.4922 70.9715 1.29522 70.8417 1.09824Z" fill="white"/>
<path d="M220.433 7.83037C220.628 10.6344 220.812 13.4385 221.007 16.2309C221.299 20.3443 221.851 24.4345 222.1 28.5479C222.219 30.5061 222.284 32.4527 222.262 34.4109C222.262 34.689 222.208 35.0597 222.533 35.1293C222.912 35.2104 222.901 34.8164 222.966 34.5615C223.399 32.8698 223.658 31.1781 223.702 29.4169C223.842 24.3766 222.901 19.4289 222.598 14.4349C222.468 12.384 222.121 10.3563 222.338 8.2475C222.89 8.28226 222.944 9.05859 223.442 8.80368C223.734 8.66463 223.669 8.30544 223.583 8.03894C222.922 5.98804 222.251 3.93715 221.58 1.89784C221.515 1.70087 221.44 1.46912 221.212 1.44595C220.92 1.41119 220.801 1.67769 220.736 1.89784C220.433 2.92908 219.892 3.87922 220.206 5.08426C220.433 5.95328 220.379 6.90341 220.433 7.83037Z" fill="white"/>
<path d="M127.189 3.48532C126.94 2.95232 126.485 3.40421 126.16 3.56643C123.303 4.94527 120.456 6.35886 117.588 7.71453C114.06 9.38304 110.596 11.2138 107.219 13.2183C106.072 13.9019 105.239 14.8636 105.13 16.4858C105.033 17.2042 105.552 17.6677 106.094 18.0964C106.364 18.3049 106.57 18.8611 106.97 18.5598C107.371 18.2702 107.263 17.7372 107.154 17.2853C107.079 16.9724 106.927 16.6828 106.656 16.5205C105.715 15.9528 106.148 15.4546 106.754 15.0606C107.825 14.3654 108.929 13.7165 110.033 13.0908C114.276 10.7155 118.681 8.69941 123.011 6.52108C124.201 5.91856 125.403 5.31605 126.572 4.67877C126.994 4.43545 127.427 3.99514 127.189 3.48532Z" fill="white"/>
<path d="M127.405 18.7916C127.513 17.7951 127.286 16.8334 127.308 15.8601C127.319 15.3619 127.416 14.9564 128.011 15.3155C128.282 15.4778 128.509 15.5009 128.661 15.1417C128.91 14.5508 128.542 13.6239 127.935 13.3574C127.232 13.0445 126.81 13.369 126.528 14.0642C126.29 14.6551 126.334 15.304 126.204 16.0223C125.619 15.5241 125.111 15.0722 124.602 14.6435C124.299 14.3886 123.952 14.2496 123.584 14.4697C123.238 14.6899 123.119 15.0606 123.13 15.4778C123.141 16.2541 123.465 16.7523 124.212 16.9029C124.699 17.0072 125.111 17.2158 125.511 17.6097C125.922 18.0153 126.085 18.4324 126.117 18.8495C126.182 18.919 127.059 19.5911 127.405 18.7916Z" fill="white"/>
<path d="M128.39 20.576C128.119 20.2284 128.033 20.0546 127.773 19.8692C127.762 19.8576 127.524 19.7765 127.492 19.7765C126.68 19.7186 126.528 20.0198 126.431 20.4369C126.496 21.3291 125.857 21.3639 125.792 22.2097C125.706 23.3337 125.359 24.3881 125.749 25.5236C126.377 27.3659 126.712 29.2893 127.037 31.2127C127.091 31.5024 126.961 31.9891 127.351 32.0006C127.73 32.0122 127.676 31.5372 127.708 31.2359C127.946 28.9881 127.362 26.8677 126.723 24.7704C126.258 23.2294 126.236 23.1714 127.697 22.9976C128.195 22.9397 128.693 22.9629 128.877 22.2793C129.072 21.5725 128.866 21.1901 128.39 20.576Z" fill="white"/>
<path d="M41.6832 11.3991C41.6507 11.712 41.7373 11.9669 42.1486 11.9785C42.2785 11.8973 42.4517 11.7931 42.6248 11.7004C44.6597 10.6228 46.7053 9.55678 48.7401 8.46761C52.301 6.54417 56.046 5.03787 59.5636 3.02174C59.9965 2.77841 60.4728 2.59303 60.7109 2.07162C60.8408 1.79353 61.0681 1.50385 60.8299 1.191C60.5702 0.854983 60.2888 1.13307 60.029 1.24894C54.1519 3.9487 48.3829 6.89178 42.6573 9.92756C42.0512 10.2404 41.7698 10.7387 41.6832 11.3991Z" fill="white"/>
<path d="M195.355 12.7549C195.517 12.639 195.701 12.5 195.907 12.3725C197.249 11.5151 198.548 10.5649 199.944 9.83493C204.176 7.59862 208.44 5.455 212.694 3.27662C213.192 3.0217 213.636 2.72044 213.841 2.15267C213.96 1.83982 214.274 1.4922 213.949 1.19094C213.69 0.936023 213.387 1.20253 213.127 1.34157C209.815 2.99853 206.514 4.67866 203.213 6.32403C200.767 7.54068 198.407 8.91955 196.123 10.4375C195.517 10.843 195.138 11.376 194.998 12.1176C194.944 12.4073 194.922 12.6969 195.355 12.7549Z" fill="white"/>
<path d="M201.048 16.9608C201.34 16.3583 201.632 15.7558 201.741 15.0838C201.784 14.8057 201.816 14.4697 201.524 14.3306C201.189 14.18 201.048 14.4928 200.918 14.7246C199.176 17.9226 197.552 21.1901 196.989 24.9095C196.827 26.0103 197.043 27.0299 197.649 27.9453C198.385 29.046 199.295 29.1387 200.139 28.1423C201.026 27.111 201.438 25.848 201.557 24.5271C201.503 24.0289 201.687 23.4264 201.156 23.2757C200.637 23.1251 200.604 23.7624 200.388 24.0868C200.312 24.2027 200.269 24.3417 200.204 24.4692C200.052 24.7589 199.879 25.0138 199.522 25.0022C199.111 24.979 198.959 24.6546 198.872 24.307C198.678 23.4959 198.732 22.6964 198.905 21.8853C199.284 20.0546 200.269 18.5598 201.048 16.9608Z" fill="white"/>
<path d="M83.1804 26.3702C84.0679 27.2973 84.1221 27.2973 84.8689 26.1848C85.0637 25.8951 85.3126 25.6517 85.4642 25.3388C85.7997 24.6782 86.1136 24.8289 86.5141 25.2577C86.9578 25.7328 87.4449 26.15 87.9103 26.5904C88.1051 26.7758 88.3541 27.0655 88.5814 26.799C89.1875 26.0573 89.6962 25.2345 90.0858 24.3769C89.9884 23.6816 89.4364 23.4614 89.0576 23.1022C87.5098 21.642 87.4882 21.642 86.211 23.3803C85.8105 23.925 85.4966 24.0061 85.0204 23.4962C84.555 22.9978 84.0246 22.5691 83.5376 22.1055C83.2454 21.8274 83.0072 21.781 82.7042 22.1403C81.2647 23.8091 81.2646 24.3653 82.7475 25.9414C82.899 26.0689 83.0397 26.2196 83.1804 26.3702Z" fill="white"/>
<path d="M158.306 41.0279C158.425 40.97 158.577 40.912 158.707 40.8077C160.265 39.5793 160.308 38.3277 158.869 37.0297C158.739 36.9138 158.587 36.8327 158.479 36.7052C157.776 35.8708 157.278 36.0678 156.715 36.9486C155.784 38.4088 155.741 38.3856 154.518 37.2962C154.312 37.1108 154.096 36.9486 153.912 36.7515C153.5 36.3227 153.208 36.4039 152.851 36.8674C151.476 38.6753 151.476 38.7449 152.981 40.3094C154.085 41.4567 154.085 41.4567 155.027 40.1703C155.903 38.9767 155.892 38.9882 157.018 39.9849C157.419 40.3326 157.711 40.8425 158.306 41.0279Z" fill="white"/>
<path d="M173.491 23.4496C172.182 24.5388 170.84 25.5816 169.53 26.6708C169.314 26.8562 168.913 27.0763 169.13 27.4123C169.389 27.8063 169.736 27.4471 169.996 27.2733C170.428 27.0068 170.84 26.7055 171.251 26.4043C173.816 24.5735 176.511 22.8934 178.048 19.846C178.21 19.5332 178.427 19.3594 178.784 19.5448C179.044 19.6954 179.358 19.9156 179.542 19.4752C179.726 19.0581 179.899 18.5483 179.466 18.2007C178.968 17.8183 178.914 17.3085 178.86 16.7291C178.817 16.173 178.687 15.6052 178.535 15.0606C178.427 14.6666 178.146 14.4001 177.615 14.4001C176.879 14.8057 176.327 15.443 176.122 16.4163C175.938 17.2969 175.851 18.1775 176.814 18.5946C177.496 18.8843 177.485 19.1972 177.074 19.7533C176.046 21.1785 174.801 22.3488 173.491 23.4496Z" fill="white"/>
<path d="M122.632 12.9517C124.061 11.9784 125.446 10.9472 126.907 10.0202C128.531 8.989 129.97 7.76079 131.139 6.19656C131.475 5.74467 131.789 5.65197 132.243 5.93006C132.514 6.09228 132.806 6.2429 133.001 5.82577C133.185 5.42023 133.315 4.86406 132.893 4.67867C131.962 4.28472 132.059 3.49681 131.983 2.68572C131.929 2.03686 131.799 1.21419 131.085 1.04038C130.349 0.854991 130.133 1.68925 129.808 2.18749C129.159 3.18396 129.223 4.2152 130.003 4.71343C130.825 5.23484 130.587 5.61721 130.057 6.12704C128.314 7.77238 126.442 9.24392 124.515 10.6228C123.411 11.4107 122.188 12.0827 121.344 13.4616C122.004 13.4847 122.307 13.1719 122.632 12.9517Z" fill="white"/>
<path d="M101.624 5.76783C101.418 5.89528 101.223 6.0575 101.245 6.33558C101.266 6.54414 101.45 6.64841 101.613 6.57889C102.5 6.23129 103.518 6.26605 104.275 5.53609C105.293 4.55122 105.942 3.26511 106.743 2.10644C107.1 1.59662 106.895 1.17951 106.332 0.970945C104.048 0.125118 101.743 1.07522 100.704 3.31145C100.585 3.56636 100.411 3.82127 100.606 4.09935C100.801 4.36584 101.072 4.26156 101.342 4.20362C102.1 4.04141 102.857 3.77492 103.799 4.06458C103.15 4.95676 102.349 5.31595 101.624 5.76783Z" fill="white"/>
<path d="M210.789 13.6934C211.049 12.9634 211.114 12.245 210.811 11.515C210.54 10.8661 210.259 10.2288 209.999 9.56834C209.891 9.30183 209.967 8.80358 209.555 8.86152C209.166 8.91945 209.144 9.39453 209.133 9.73056C209.122 10.1129 209.166 10.5185 209.274 10.8777C209.458 11.4802 209.707 12.048 209.977 12.778C209.111 12.7085 208.982 12.1059 208.819 11.5845C208.603 10.9125 208.451 10.2172 208.246 9.54517C208.159 9.26707 208.148 8.82676 207.715 8.91945C207.369 9.00056 207.326 9.38294 207.315 9.6958C207.304 10.0434 207.358 10.4026 207.412 10.7502C207.477 11.1674 207.629 11.5845 207.661 12.0017C207.694 12.4999 207.845 13.2415 207.174 13.2994C206.611 13.3458 206.568 12.6621 206.514 12.1639C206.46 11.5961 206.416 11.0283 206.341 10.4721C206.297 10.1709 206.319 9.74215 205.886 9.7885C205.518 9.83485 205.464 10.2404 205.486 10.5417C205.551 11.6772 205.626 12.8128 205.778 13.9367C205.864 14.5509 206.287 14.9332 206.871 15.0375C207.401 15.1418 207.791 14.8985 207.997 14.377C208.267 13.7166 208.516 14.1337 208.808 14.3539C209.653 14.9796 210.432 14.7015 210.789 13.6934Z" fill="white"/>
<path d="M27.9267 14.2727C27.6561 14.1916 27.3097 14.0062 27.0933 14.3307C26.8443 14.713 27.0824 15.0838 27.2556 15.4199C27.4721 15.8254 27.8509 15.9877 28.2514 16.0108C29.4095 16.0803 30.5676 15.9297 31.6824 15.6169C32.3643 15.4199 32.8622 14.2727 32.6782 13.4153C32.4942 12.5694 31.9314 12.3377 31.1845 12.3492C30.7949 12.3492 30.3619 12.5346 29.9939 12.187C30.3187 11.7351 30.7624 11.8162 31.1088 11.654C31.5417 11.4454 31.7798 11.0167 31.6175 10.53C31.4335 9.98544 30.9897 10.1013 30.6217 10.2983C29.6043 10.8313 28.7925 11.5497 28.5328 12.8127C28.3704 13.5775 28.6627 13.9831 29.3554 14.041C29.9074 14.0873 30.4594 14.0526 31.0114 14.0526C30.0048 14.3654 28.9874 14.5972 27.9267 14.2727Z" fill="white"/>
<path d="M164.118 15.8948C164.67 15.5704 165.19 15.188 165.742 14.8636C168.545 13.1719 171.348 11.4917 174.162 9.82319C174.66 9.52192 174.963 9.0932 175.104 8.52543C175.028 7.98084 174.725 8.00402 174.379 8.18941C173.794 8.51385 173.221 8.87305 172.626 9.19749C169.746 10.7386 166.922 12.3839 164.172 14.1568C163.826 14.3769 163.48 14.5971 163.317 15.0142C163.198 15.3155 163.101 15.6399 163.317 15.918C163.566 16.2425 163.869 16.0571 164.118 15.8948Z" fill="white"/>
<path d="M152.126 25.4888C152.245 25.709 152.472 25.5815 152.667 25.5468C154.832 25.0949 156.174 23.5538 157.213 21.5956C157.473 21.0974 157.516 20.6455 156.921 20.3674C154.908 19.4289 152.332 20.3558 151.368 22.3488C151.26 22.5689 151.065 22.7891 151.195 23.044C151.368 23.3684 151.682 23.2294 151.91 23.1599C152.819 22.8934 153.728 22.9281 154.864 23.0208C153.901 23.7392 153.143 24.307 152.386 24.8747C152.213 25.0369 151.985 25.2107 152.126 25.4888Z" fill="white"/>
<path d="M66.6963 16.2772C66.5989 15.6863 66.718 15.0722 66.4582 14.5044C66.3608 14.2958 66.285 13.9946 65.982 14.0525C65.7114 14.1104 65.614 14.3885 65.6464 14.6319C65.7547 15.7442 65.7872 16.8913 66.0577 17.9574C66.3175 19.0118 67.0535 19.1508 67.8436 18.4093C68.1791 18.0964 68.4389 18.0037 68.8827 18.2007C70.0732 18.7337 70.6252 18.2934 70.8309 16.9145C71.0149 15.721 70.2789 14.852 70.0083 13.8092C69.9542 13.5774 69.8676 13.2878 69.5645 13.3457C69.2831 13.392 69.2615 13.6933 69.2182 13.925C69.045 14.8868 69.4455 15.721 69.8243 16.6944C69.0991 16.5553 68.9151 16.0687 68.8177 15.5357C68.7095 14.9099 68.6012 14.2842 68.3415 13.7049C68.2224 13.4384 68.125 13.0213 67.7462 13.1371C67.3998 13.2298 67.3782 13.6354 67.4107 13.9366C67.4973 14.6666 67.6488 15.3966 67.7462 16.1266C67.8003 16.5553 67.8003 17.0767 67.27 17.1115C66.8587 17.1463 66.7613 16.6596 66.6963 16.2772Z" fill="white"/>
<path d="M94.5126 2.09478C94.6533 1.82828 94.7615 1.46909 94.4151 1.24894C94.1446 1.08673 93.9822 1.34164 93.874 1.55021C92.586 3.83282 91.6119 6.24288 91.2006 8.89627C91.2006 9.4872 91.298 10.0318 91.5037 10.5648C91.7526 11.2136 92.2288 11.5844 92.8566 11.6539C93.5168 11.7235 93.874 11.2484 94.1013 10.6459C94.4043 9.82322 94.6965 9.00055 94.9671 8.1663C95.0645 7.88821 95.2594 7.48267 94.9022 7.32046C94.5342 7.15824 94.4476 7.62171 94.3069 7.87663C94.1121 8.20106 93.9497 8.6066 93.4843 8.45597C93.0839 8.32851 92.9432 7.95773 92.8782 7.56378C92.7375 6.76429 92.9432 6.02273 93.2029 5.28117C93.5709 4.192 93.9714 3.10284 94.5126 2.09478Z" fill="white"/>
<path d="M21.7897 8.09686C21.9521 8.00417 22.1577 7.89988 22.3525 7.78401C22.9154 7.42481 23.4782 7.04244 24.041 6.69483C26.2706 5.32756 28.5003 3.96029 30.7299 2.58144C31.1953 2.29176 31.5417 1.79352 31.3144 1.2721C31.0005 0.565296 30.5026 1.14465 30.1454 1.33004C27.3855 2.77842 24.7445 4.43536 22.1144 6.13865C21.6382 6.4515 21.2918 6.84546 21.2485 7.47116C21.2377 7.80718 21.3243 8.09686 21.7897 8.09686Z" fill="white"/>
<path d="M139.149 14.2379C138.878 14.1453 138.542 13.8903 138.337 14.2495C138.153 14.574 138.348 14.9447 138.542 15.2344C138.737 15.5357 139.04 15.6979 139.354 15.8253C140.512 16.2772 141.714 16.1729 142.904 16.0803C143.521 16.0339 144.236 14.8405 144.181 14.1105C144.127 13.4384 143.803 13.0097 143.142 12.8823C142.655 12.778 141.833 13.1256 141.757 12.5231C141.681 11.9901 142.569 12.1523 142.969 11.8858C143.326 11.6541 143.651 11.3065 143.467 10.843C143.262 10.31 142.785 10.4838 142.428 10.6576C141.735 11.0052 141.108 11.4803 140.675 12.1755C140.393 12.6042 140.025 13.0561 140.296 13.6354C140.566 14.2032 141.097 14.1684 141.595 14.2032C142.049 14.2379 142.526 14.0873 143.207 14.5856C141.67 14.5971 140.393 14.6551 139.149 14.2379Z" fill="white"/>
<path d="M208.235 20.3906C208.559 20.101 208.765 20.4717 208.992 20.6456C209.198 20.8078 209.414 20.97 209.577 20.6687C209.815 20.24 209.793 19.7534 209.555 19.3478C209.263 18.838 208.917 18.2934 208.267 18.3166C207.813 18.3282 207.629 18.7453 207.488 19.174C207.228 19.9272 207.369 20.7267 207.217 21.6884C206.979 21.4798 206.828 21.3987 206.741 21.2712C206.286 20.5992 205.767 20.0083 205.042 19.6838C204.566 19.4753 204.133 19.4173 203.905 20.0778C203.581 21.0163 203.905 22.0939 204.782 22.3372C205.973 22.6733 206.763 23.3685 207.25 24.5504C207.358 24.8169 207.52 25.1876 207.91 25.0254C208.213 24.898 208.17 24.5503 208.159 24.2723C208.137 23.2758 208.094 22.2793 208.062 21.2944C208.051 20.97 207.997 20.6108 208.235 20.3906Z" fill="white"/>
<path d="M197.216 4.36577C198.375 4.41212 199.1 5.08416 199.608 6.13857C199.771 6.47459 199.987 7.00759 200.496 6.77585C200.918 6.57887 200.875 6.06905 200.864 5.64033C200.842 4.82925 200.777 4.00657 200.777 3.19549C200.777 2.7436 200.907 2.39599 201.438 2.63932C202.239 2.99851 202.293 2.48868 202.217 1.86299C202.119 1.09825 201.708 0.588435 200.994 0.565261C200.29 0.542087 200.063 1.16778 199.987 1.79347C199.911 2.44234 199.911 3.10279 199.857 3.94864C199.089 3.06803 198.483 2.28012 197.606 1.81665C197.26 1.63126 196.913 1.43428 196.61 1.79347C196.231 2.25695 196.275 2.84788 196.383 3.41564C196.48 3.92547 196.697 4.3426 197.216 4.36577Z" fill="white"/>
<path d="M86.514 2.74353C86.8279 2.96369 87.1202 3.06797 87.2933 2.56972C87.5423 1.86291 87.0444 0.947532 86.2435 0.669442C85.4642 0.391353 85.0204 0.820076 84.8472 1.56165C84.6957 2.19894 84.6741 2.88258 84.5658 3.75161C83.8731 3.16067 83.4077 2.5002 82.715 2.15259C82.2821 1.93243 81.8275 1.7818 81.492 2.32639C80.9725 3.16066 81.3621 4.51635 82.2604 4.58587C83.4402 4.67857 84.0788 5.36221 84.6416 6.31235C84.7715 6.5325 84.9338 6.85694 85.2477 6.75265C85.6049 6.63678 85.6049 6.266 85.5941 5.95315C85.5724 5.10729 85.4966 4.26144 85.4966 3.41558C85.4966 2.63925 85.7348 2.18735 86.514 2.74353Z" fill="white"/>
<path d="M183.027 37.6088C183.308 37.0642 183.005 35.5348 182.497 35.2567C181.674 34.8164 181.219 35.4652 180.927 36.0909C180.31 37.4582 179.293 38.3156 178.07 38.9413C176.749 39.6134 175.537 40.5172 174.108 40.9459C173.838 41.027 173.524 41.1428 173.405 41.8265C176.154 41.3862 178.503 40.3549 180.462 38.4547C180.938 37.9912 181.284 37.7363 181.901 38.0028C182.345 38.1998 182.767 38.0955 183.027 37.6088Z" fill="white"/>
<path d="M211.514 38.9766C212.456 38.9071 212.478 38.1306 212.456 37.4121C212.445 36.9834 212.196 36.7863 211.763 37.0992C211.255 37.4701 210.454 37.3774 210.259 38.2697C210.205 38.5015 209.858 38.4088 209.62 38.3392C209.306 38.2349 208.982 38.1538 208.744 38.0843C208.029 38.1886 207.423 38.374 206.849 38.6753C205.15 39.5676 203.44 40.4483 201.578 40.9003C201.308 40.9698 200.842 41.0046 200.918 41.387C201.005 41.8274 201.459 41.6883 201.773 41.642C203.451 41.3523 205.085 40.9119 206.611 40.0427C207.466 39.556 208.354 39.1504 209.35 39.7414C209.761 39.9848 210.194 39.7762 210.551 39.4633C210.832 39.2199 211.125 39.0114 211.514 38.9766Z" fill="white"/>
<path d="M165.634 4.71347C166.77 4.85251 167.3 5.54773 167.701 6.5558C167.809 6.83388 167.928 7.22785 168.296 7.1815C168.729 7.12356 168.729 6.66008 168.729 6.33565C168.74 5.4898 168.653 4.63236 168.664 3.78651C168.664 3.32303 168.707 2.74368 169.4 3.1724C169.66 3.33462 169.909 3.58953 170.19 3.26509C170.439 2.97542 170.439 2.59304 170.331 2.25702C170.125 1.6545 169.725 1.19102 169.119 1.14467C168.426 1.08674 168.242 1.71243 168.134 2.26861C168.004 2.987 167.961 3.71698 167.863 4.58601C167.192 3.77492 166.781 2.8943 165.958 2.44241C165.601 2.24543 165.298 2.0948 164.995 2.52352C164.53 3.18398 164.865 4.62077 165.634 4.71347Z" fill="white"/>
<path d="M152.7 13.0676C153.62 13.311 154.226 13.8208 154.648 14.6898C154.788 14.9795 155.027 15.3503 155.427 15.1649C155.784 15.0027 155.784 14.5855 155.773 14.2379C155.741 13.4616 155.654 12.6853 155.611 11.8973C155.579 11.3064 155.719 10.9124 156.325 11.4455C156.574 11.6656 156.856 11.8858 157.051 11.457C157.267 11.0051 157.116 10.5301 156.834 10.1593C156.52 9.74216 156.141 9.33661 155.589 9.41772C155.135 9.48724 154.951 9.90438 154.897 10.3447C154.821 11.0051 154.788 11.6656 154.734 12.4535C154.074 11.8394 153.565 11.3296 153.024 10.8661C152.764 10.6459 152.44 10.4721 152.148 10.8661C151.736 11.4455 152.028 12.8938 152.7 13.0676Z" fill="white"/>
<path d="M112.956 21.3755C112.902 21.6884 112.956 21.9433 113.367 21.9664C113.486 21.9085 113.638 21.8506 113.778 21.7579C115.813 20.3675 118.043 19.3826 120.197 18.2239C120.489 18.0617 120.759 17.8531 120.987 17.6098C121.214 17.3665 121.485 17.0421 121.279 16.6713C121.041 16.2542 120.662 16.5323 120.391 16.6713C118.14 17.8531 115.846 18.9307 113.681 20.2979C113.28 20.5413 113.042 20.9005 112.956 21.3755Z" fill="white"/>
<path d="M181.512 6.55582C181.609 6.50947 181.771 6.45154 181.912 6.35885C183.72 5.09584 185.744 4.26155 187.681 3.27664C188.244 2.98696 188.785 2.62776 189.272 2.19903C189.532 1.96729 189.727 1.5038 189.456 1.1446C189.185 0.785391 188.817 1.04031 188.579 1.26047C187.973 1.79348 187.216 1.99046 186.534 2.34966C184.899 3.20712 183.211 3.96028 181.685 5.04948C181.328 5.3044 181.1 5.61726 181.068 6.08075C181.046 6.38202 181.154 6.56741 181.512 6.55582Z" fill="white"/>
<path d="M40.4493 29.9384C38.8258 31.5492 38.8475 32.2793 40.5684 33.7627C40.7199 33.8902 40.8715 34.0293 41.0338 34.1568C41.2178 34.3074 41.4234 34.4233 41.6724 34.3538C41.9971 34.2611 43.231 32.3605 43.2093 31.8969C43.1877 31.839 43.166 31.6767 43.0794 31.5956C42.4408 30.9814 41.8023 30.3787 41.1529 29.7877C40.8823 29.5559 40.6658 29.7298 40.4493 29.9384Z" fill="white"/>
<path d="M92.3262 36.9833C91.7309 36.7978 91.2764 37.3773 91.0274 37.9104C90.6378 38.7332 90.01 39.1967 89.2632 39.5212C88.4406 39.8805 87.5855 40.1702 86.7738 40.5642C85.8971 40.993 84.9013 41.1437 84.1437 41.897C86.4383 41.7579 88.6679 41.3523 90.5295 39.7878C90.9949 39.4054 91.3305 39.1852 91.9149 39.4517C92.6185 39.7646 93.0081 39.3358 93.0189 38.5941C93.0298 37.9567 92.9648 37.1803 92.3262 36.9833Z" fill="white"/>
<path d="M30.8056 18.8267C30.8922 18.7803 31.0113 18.7108 31.1303 18.6413C33.1868 17.3666 35.2433 16.092 37.3105 14.8289C37.5811 14.6667 37.7976 14.4697 37.9058 14.1568C37.9924 13.8903 38.1331 13.6006 37.9167 13.3573C37.6785 13.0907 37.4188 13.2761 37.1915 13.4036C35.2433 14.5856 33.2842 15.7791 31.3468 16.9842C30.9139 17.2507 30.5242 17.5984 30.4485 18.1778C30.3835 18.4906 30.3943 18.7571 30.8056 18.8267Z" fill="white"/>
<path d="M153.057 5.52538C153.338 5.3979 153.717 5.27042 154.052 5.05023C155.568 4.09992 157.202 3.40458 158.782 2.60493C159.064 2.46586 159.313 2.31521 159.464 2.02548C159.605 1.74734 159.8 1.44603 159.594 1.14471C159.388 0.866573 159.085 1.01723 158.858 1.12153C156.975 2.07184 155.005 2.81353 153.187 3.9145C152.786 4.15787 152.57 4.5519 152.505 5.02705C152.472 5.38631 152.602 5.58333 153.057 5.52538Z" fill="white"/>
<path d="M136.637 39.6139C137.33 39.892 137.644 39.4168 137.655 38.7563C137.666 38.1537 137.601 37.4351 136.984 37.2265C136.345 37.0179 136.042 37.6785 135.858 38.1884C135.479 39.2778 134.765 39.8456 133.758 40.2628C132.221 40.877 130.739 41.6303 129.191 42.2677C131.54 42.3836 133.715 41.9316 135.458 40.1122C135.815 39.7413 136.053 39.3821 136.637 39.6139Z" fill="white"/>
<path d="M134.819 25.9532C135.285 25.5476 135.339 24.9101 135.414 24.3423C135.382 23.7744 135.22 23.334 134.711 23.1254C134.224 22.9283 133.737 22.7777 133.423 22.2214C133.163 21.7462 132.903 22.1402 132.828 22.4416C132.644 23.1601 132.481 23.8903 132.362 24.6204C132.254 25.2926 132.395 25.9764 132.968 26.3009C133.596 26.6718 134.278 26.4284 134.819 25.9532Z" fill="white"/>
<path d="M213.517 18.4324C212.748 19.7765 212.099 21.1669 211.915 22.7311C211.936 23.3916 212.056 23.9709 212.618 24.307C212.9 24.4692 213.224 24.4576 213.463 24.2143C213.971 23.6929 214.155 23.0092 214.188 22.2908C214.199 22.0475 214.058 21.9316 213.787 21.9664C213.04 22.0823 212.997 22.0243 213.289 21.248C213.603 20.4253 213.95 19.6142 214.264 18.7916C214.35 18.5598 214.339 18.2701 214.08 18.1427C213.809 18.0036 213.636 18.2238 213.517 18.4324Z" fill="white"/>
<path d="M187.291 10.6691C187.562 9.95076 187.865 9.23238 188.125 8.514C188.19 8.32862 188.201 8.07371 187.963 7.96943C187.768 7.88832 187.627 8.03895 187.573 8.20116C187.01 9.66109 186.144 11.0052 185.949 12.5578C185.982 13.2646 186.177 13.7976 186.729 14.122C187.021 14.2958 187.335 14.261 187.551 13.9945C187.952 13.5079 188.233 12.9286 188.157 12.2565C188.125 11.9089 187.908 11.7351 187.595 12.0016C186.913 12.5925 186.967 11.9784 187.01 11.5613C187.032 11.2601 187.183 10.9588 187.291 10.6691Z" fill="white"/>
<path d="M216.85 41.1197C217.197 41.5832 217.608 41.5716 217.954 41.1776C218.355 40.7258 218.798 40.2391 218.625 39.5091C218.593 39.3585 218.409 39.3701 218.279 39.3932C217.424 39.5786 217.586 38.9645 217.749 38.5126C217.943 37.9564 218.257 37.4466 218.495 36.902C218.679 36.4733 218.993 36.0677 218.723 35.2567C217.651 36.8788 216.569 38.2345 216.493 40.1464C216.493 40.5056 216.634 40.83 216.85 41.1197Z" fill="white"/>
<path d="M68.1899 5.74482C67.9626 5.43198 67.7353 4.87581 67.2916 5.17707C66.8478 5.47833 66.9452 6.04608 67.1292 6.50955C67.2158 6.7297 67.3998 6.9035 67.5405 7.10048C68.06 7.84204 68.4064 8.6647 68.5363 9.59165C68.612 10.171 68.3631 10.6924 68.309 11.2486C68.2765 11.4919 68.2116 11.8047 68.4822 11.8974C68.796 12.0017 68.8285 11.6425 68.9043 11.434C69.1532 10.7387 69.3047 10.0204 69.2614 9.25563C69.348 7.94632 68.9476 6.78763 68.1899 5.74482Z" fill="white"/>
<path d="M51.5218 15.1764C51.6409 14.9446 51.6733 14.6781 51.4352 14.5159C51.2296 14.3653 51.0347 14.5043 50.9481 14.7013C50.3204 16.0454 49.4653 17.2968 49.3463 18.6641C49.3246 19.7881 49.7467 20.5065 50.2879 20.5065C50.7966 20.5065 51.511 19.4753 51.511 18.7569C51.511 18.3165 51.3053 18.2586 51.0239 18.5019C50.3745 19.0697 50.407 18.5019 50.3853 18.0732C50.3637 17.5981 50.5044 17.1578 50.6992 16.7522C50.9481 16.2076 51.2512 15.7094 51.5218 15.1764Z" fill="white"/>
<path d="M100.379 14.4812C100.487 14.2726 100.585 13.9945 100.292 13.8439C100.087 13.7396 99.8919 13.8787 99.7836 14.0525C99.0693 15.2343 98.474 16.4857 98.225 17.7487C98.225 18.7567 98.6472 19.3824 99.21 19.3245C99.7079 19.2781 100.368 18.2237 100.292 17.6096C100.249 17.2852 100.108 17.1925 99.8161 17.3431C98.9394 17.8182 99.2208 17.1462 99.329 16.7406C99.5672 15.9295 100 15.2227 100.379 14.4812Z" fill="white"/>
<path d="M148.857 17.1346C148.922 16.9724 148.955 16.7638 148.781 16.6596C148.608 16.5437 148.457 16.6943 148.381 16.845C147.656 18.2354 146.801 19.5563 146.638 21.19C146.671 21.9547 146.779 22.6615 147.613 22.8238C148.056 22.9164 148.771 21.8852 148.781 21.1784C148.781 21.051 148.76 20.8656 148.673 20.7961C148.511 20.657 148.381 20.8076 148.251 20.9235C147.667 21.5029 147.537 21.051 147.493 20.518C147.45 20.1124 147.634 19.7648 147.797 19.4172C148.165 18.6641 148.511 17.9109 148.857 17.1346Z" fill="white"/>
<path d="M56.7819 38.3851C55.3965 39.0341 54.022 39.6947 52.6474 40.3669C52.3335 40.5175 52.0737 40.8188 52.2902 41.2129C52.485 41.5721 52.8097 41.4099 53.0803 41.2824C54.3358 40.6682 55.5805 40.0424 56.8361 39.4166C57.1175 39.2775 57.3339 39.0805 57.3989 38.698C57.3772 38.2345 57.085 38.2461 56.7819 38.3851Z" fill="white"/>
<path d="M116.755 12.1871C116.831 12.0017 116.841 11.7583 116.603 11.6424C116.419 11.5613 116.268 11.7003 116.203 11.851C115.748 13.0447 115.001 14.1225 114.969 15.293C114.98 15.9535 115.012 16.4171 115.445 16.6721C115.737 16.8459 116.03 16.788 116.279 16.5678C116.712 16.1853 116.831 15.6175 116.885 15.0612C116.917 14.7946 116.701 14.7019 116.484 14.8294C115.532 15.3857 115.835 14.5281 115.932 14.192C116.149 13.5198 116.495 12.8708 116.755 12.1871Z" fill="white"/>
<path d="M146.097 40.6569C145.978 40.8771 145.957 41.1552 146.173 41.329C146.325 41.4565 146.498 41.3986 146.606 41.2479C147.385 40.1817 148.046 39.046 148.262 37.8987C148.251 37.3193 148.208 36.9484 147.851 36.7862C147.461 36.6008 147.136 36.821 146.877 37.1107C146.606 37.412 146.303 37.7249 146.314 38.1884C146.325 38.4202 146.53 38.4086 146.693 38.3391C146.877 38.258 147.093 38.1537 147.223 38.3855C147.374 38.652 147.147 38.8374 147.017 39.0344C146.714 39.5791 146.39 40.1122 146.097 40.6569Z" fill="white"/>
<path d="M66.6963 39.6486C65.5923 39.892 66.1443 39.1387 66.2742 38.7678C66.4798 38.1652 66.9128 37.6437 66.902 36.902C66.1443 37.3192 64.8671 39.8572 65.0403 40.5642C65.181 41.1089 65.4841 41.5956 66.0902 41.387C66.7288 41.1668 66.9561 40.5758 66.9669 39.8804C66.9561 39.7297 66.8478 39.6138 66.6963 39.6486Z" fill="white"/>
<path d="M24.896 27.3891C25.4371 27.1458 25.5779 26.6591 25.567 26.103C25.567 25.7786 25.5021 25.3846 25.1125 25.4194C24.1708 25.5121 24.4306 24.9096 24.5929 24.4229C24.7878 23.832 25.0583 23.2527 25.2748 22.6618C25.3614 22.4185 25.3181 22.1636 25.0583 22.0361C24.8852 21.9434 24.712 22.0245 24.6362 22.1867C24.1059 23.357 23.4998 24.504 23.3807 25.8713C23.424 26.3115 23.5323 26.7518 23.8137 27.111C24.0951 27.4702 24.4739 27.5745 24.896 27.3891Z" fill="white"/>
<path d="M106.537 26.3359C102.468 25.5705 98.4523 24.5268 94.2745 24.9791C98.4523 24.5152 102.468 25.5589 106.537 26.3359Z" fill="white"/>
<path d="M101.082 28.3393C100.487 28.5828 99.8919 28.8378 99.3074 29.1045C99.9027 28.8494 100.487 28.5944 101.082 28.3393Z" fill="white"/>
<path d="M181.458 25.4658C181.176 25.9642 182.215 27.923 182.215 27.923C182.215 27.923 185.311 27.2508 184.715 26.5322C184.109 25.802 181.75 24.9558 181.458 25.4658Z" fill="white"/>
<path d="M187.4 26.3116C187.378 26.1493 187.291 25.9524 187.183 25.8597C185.906 24.7937 184.726 23.5423 183.059 23.1599C182.042 22.9282 180.992 22.6732 180.213 23.7161C179.293 24.9559 178.957 26.3579 179.682 27.7947C180.105 28.629 179.866 28.8723 179.174 29.162C176.674 30.1932 174.357 31.5605 172.485 33.6809C171.273 35.0482 170.06 36.427 168.827 37.7595C168.123 38.5243 167.322 39.1615 166.305 39.3817C164.811 39.7061 163.761 38.8487 163.631 37.2381C163.469 35.3031 164.086 33.5998 164.876 31.9313C165.103 31.4446 165.385 31.3287 165.915 31.5489C166.943 31.9544 168.036 32.2789 169.14 32.0008C172.593 31.1433 175.234 29.1504 176.728 25.6163C176.89 25.2224 177.28 24.701 176.793 24.3765C176.36 24.0753 176.154 24.7241 175.829 24.9327C175.656 25.037 175.526 25.1992 175.375 25.3498C174.152 26.5781 172.777 27.5514 171.186 28.1887C170.244 28.5594 169.379 28.5247 168.534 27.899C166.922 26.7055 166.207 24.9443 165.742 23.0093C165.634 22.5458 165.807 22.2561 166.196 22.0823C168.762 20.9352 171.392 20.4022 174.173 20.9236C174.401 20.9699 174.65 21.1553 174.823 20.912C175.039 20.5876 174.736 20.3906 174.552 20.2052C173.394 18.9886 171.954 18.5946 170.363 18.5135C167.073 18.3281 164.67 20.3211 164.097 23.7277C163.956 24.5735 164.291 25.3846 164.216 26.3347C163.729 25.8133 163.555 25.2571 163.447 24.6662C162.711 20.7846 162.592 16.8218 162.278 12.8938C162.008 9.48723 161.434 6.11541 161.142 2.72042C161.109 2.34963 161.044 1.85139 160.568 1.86298C160.157 1.87456 160.168 2.36122 160.038 2.67407C159.41 4.23831 159.572 5.84891 159.746 7.49426C160.146 11.3875 160.568 15.2807 160.731 19.174C160.85 22.0591 161.521 24.8864 161.391 27.7831C161.337 28.9302 160.752 29.5212 159.41 29.6718C158.501 29.7761 157.808 29.2662 157.581 28.2698C157.494 27.8874 157.473 27.4934 157.44 27.1111C157.408 26.7982 157.462 26.4158 157.105 26.3C156.758 26.1725 156.574 26.5085 156.347 26.7055C155.708 27.2965 155.33 28.1075 154.821 28.8028C153.5 30.5872 151.671 31.1549 149.68 30.4597C148.349 29.9962 147.407 29.0577 146.606 27.8874C145.112 25.709 143.813 23.3569 142.038 21.4218C139.333 18.4787 136.518 15.6515 133.639 12.917C132.828 12.1522 132.849 11.99 133.802 11.4107C137.471 9.16279 141.281 7.21618 145.253 5.66352C146.389 5.22321 147.58 4.7829 148.836 4.81766C149.929 4.85242 150.145 5.28115 149.604 6.27763C149.269 6.89174 148.911 7.49427 148.554 8.09679C147.602 9.71897 147.071 11.5034 146.628 13.3341C146.573 13.5543 146.465 13.8903 146.779 13.9714C147.082 14.0525 147.158 13.7165 147.212 13.4963C147.493 12.2218 148.056 11.0746 148.749 10.0434C149.831 8.42122 150.589 6.66 151.13 4.7829C151.39 3.87912 151.845 2.88263 151.152 2.03678C150.459 1.19093 149.485 1.56171 148.608 1.74711C146.779 2.14106 145.058 2.89422 143.326 3.63579C139.895 5.10734 136.529 6.70635 133.39 8.80359C131.312 10.1824 130.912 13.6238 132.525 15.5936C134.938 18.5367 137.46 21.3755 139.722 24.4576C140.826 25.9639 141.876 27.5282 142.634 29.2894C142.893 29.8919 142.774 30.3091 142.244 30.6335C141.227 31.236 140.079 31.6068 139.149 30.7957C138.315 30.0773 137.46 30.0773 136.54 29.9267C134.17 29.5443 132.178 30.4829 130.501 32.0819C128.563 33.9242 126.799 35.9635 124.959 37.9217C124.266 38.6517 123.541 39.3354 122.643 39.7525C121.279 40.3898 120.045 39.5903 119.926 38.0144C119.904 37.8059 119.904 37.5857 119.915 37.3771C119.948 36.8673 120.175 36.1837 120.392 35.6159C120.456 35.4421 120.24 35.2915 120.121 35.4421C119.753 35.8708 119.407 36.2648 119.158 36.5545C118.92 36.821 118.811 37.1802 118.844 37.5394C118.844 37.551 118.844 37.5625 118.844 37.5857C118.93 39.5903 119.764 41.0386 121.55 41.7918C123.433 42.5797 124.883 41.8845 126.16 40.355C127.405 38.8719 128.693 37.4351 129.992 36.0099C131.128 34.7701 132.503 33.901 134.062 33.4028C135.869 32.8235 137.038 33.5071 137.59 35.361C138.045 36.9021 138.986 38.0028 140.404 38.617C141.021 38.8835 141.389 38.6865 141.432 37.9681C141.476 37.296 141.551 36.6008 141.454 35.9404C141.281 34.828 141.443 34.0053 142.58 33.6461C142.872 33.5534 143.056 33.2522 143.186 32.9625C143.835 31.4678 144.127 29.9383 143.738 28.2929C143.662 27.9801 143.445 27.6557 143.673 27.2153C144.43 28.4436 145.166 29.6139 145.881 30.7957C146.941 32.5685 148.262 33.9937 150.308 34.2718C152.754 34.6079 154.312 33.1711 155.524 31.1086C155.698 30.8189 155.795 30.3554 156.185 30.4134C156.531 30.4597 156.477 30.9232 156.553 31.2129C157.029 32.9393 158.187 33.5766 159.756 32.9973C160.579 32.696 161.185 32.1978 161.607 31.3403C161.954 30.6451 162.235 29.9267 162.441 29.1851C162.571 28.7217 162.668 28.5478 163.058 29.0345C164.443 30.7494 164.465 30.7378 163.555 32.7771C163.523 32.8466 163.491 32.9046 163.469 32.9741C162.711 34.967 162.322 36.9484 163.014 39.1036C164.021 42.2785 167.787 43.2286 169.844 40.7374C170.818 39.5671 171.911 38.5127 172.82 37.296C174.801 34.6542 177.507 33.2753 180.321 32.0471C180.7 31.8849 181.144 31.7111 181.577 31.9428C181.869 32.1051 182.107 32.0587 182.226 31.7227C182.399 31.2013 182.832 31.1202 183.233 30.9579C184.044 30.6451 184.856 30.3322 185.646 29.9615C186.371 29.5791 187.529 27.1574 187.4 26.3116ZM182.215 27.9106C182.215 27.9106 181.176 25.964 181.457 25.4541C181.739 24.9559 184.109 25.7901 184.715 26.5085C185.311 27.2501 182.215 27.9106 182.215 27.9106Z" fill="white"/>
<path d="M119.742 25.0139C118.487 24.6779 117.664 25.1529 117.642 26.0335C117.621 26.9257 118.476 27.1574 119.688 27.0068C120.792 26.8678 121.019 27.3776 121.019 27.3776C121.344 26.3 120.987 25.3499 119.742 25.0139Z" fill="white"/>
<path d="M106.537 26.3359C102.468 25.5705 98.4523 24.5268 94.2745 24.9791C98.4523 24.5152 102.468 25.5589 106.537 26.3359Z" fill="white"/>
<path d="M105.617 26.6365C105.92 26.5321 106.234 26.4276 106.537 26.3231C106.234 26.4276 105.92 26.5321 105.617 26.6365Z" fill="white"/>
<path d="M120.381 22.3489C119.19 21.4451 118.205 21.5378 117.177 22.6617C116.16 23.7625 115.64 25.1529 115.672 26.694C115.716 28.7449 116.56 29.5676 118.454 29.5907C119.147 29.6023 119.84 29.5791 120.532 29.6487C120.954 29.695 121.441 29.7877 121.604 30.2859C121.766 30.7726 121.333 31.0507 121.073 31.3404C119.623 32.9394 118.086 34.4341 116.419 35.7897C114.785 37.1222 113.021 38.1071 110.878 38.0376C109.546 37.9913 108.659 37.2497 108.118 35.9867C107.901 35.4885 107.901 34.9671 108.215 34.5847C109.568 32.9046 112.49 30.8074 114.915 32.7192C115.185 32.9394 115.445 32.9973 115.683 32.6613C116.192 31.9313 115.932 29.7877 115.25 29.2315C113.941 28.1771 112.523 28.0728 111.04 28.7565C109.092 29.6603 107.533 31.1318 106.094 32.754C104.708 34.3182 103.431 35.9867 101.97 37.4814C101.277 38.1882 100.487 38.6633 99.5563 38.8603C98.593 39.0573 97.8354 38.5706 97.5648 37.5857C97.2726 36.5429 97.2726 35.4885 97.4999 34.4341C97.5648 34.1444 97.5756 33.7157 97.922 33.6693C98.2359 33.623 98.2791 34.0401 98.3982 34.2719C99.0151 35.5232 100.065 36.1721 101.256 36.5545C102.078 36.821 102.544 36.4386 102.479 35.5812C102.392 34.4572 102.446 33.2754 101.959 32.2557C101.58 31.4446 101.808 31.1434 102.511 30.8769C105.217 29.8572 107.901 28.7449 110.618 27.76C111.462 27.4587 112.025 27.0068 112.415 26.1378C113.194 24.3766 113.14 24.1796 111.343 23.7857C108.269 23.1136 105.195 22.43 102.111 21.8159C100.033 21.3988 97.922 21.167 95.8006 21.2945C94.1121 21.3988 92.6834 22.3837 92.4561 23.7625C92.1747 25.4774 92.1964 27.366 94.1229 28.4204C94.794 28.7912 95.4001 29.3011 96.0387 29.7414C96.4716 30.031 96.5907 30.3323 96.1144 30.7031C95.1512 31.4562 94.177 32.2094 93.0622 32.6613C91.0924 33.4608 89.3281 32.893 88.0618 31.0854C87.6505 30.4945 87.2717 29.8804 86.698 29.4169C86.2326 29.0461 85.8105 28.9998 85.3234 29.2779C83.7757 30.1701 82.5202 31.3519 81.6435 33.0205C80.9291 34.3877 80.5936 35.9288 79.8792 37.2845C79.4355 38.1303 78.9051 39.0109 77.8769 38.9298C76.7945 38.8487 76.2967 37.887 75.907 36.9137C75.8096 36.6588 75.7555 36.3691 75.7338 36.091C75.604 34.7237 75.4957 33.3449 75.3767 31.9776C75.3442 31.6764 75.42 31.2477 75.0195 31.2245C74.6407 31.2129 74.6082 31.63 74.5649 31.9313C74.1969 34.9091 74.5433 37.7479 76.1884 40.2391C77.1301 41.6643 78.9484 42.3016 80.2797 40.216C80.6369 39.6598 80.875 39.0457 81.0482 38.3852C81.5785 36.427 82.5851 34.8048 84.0463 33.4955C85.4425 32.2441 85.9945 32.3368 87.0444 33.9706C88.4298 36.1258 90.6053 37.551 93.4627 35.952C94.2636 35.5001 95.0213 35.025 95.714 34.4225C95.9088 34.2487 96.1145 33.9358 96.3959 34.1096C96.6773 34.2834 96.5041 34.631 96.4608 34.886C96.2552 36.1373 96.3417 37.354 96.753 38.5474C97.7488 41.4905 101.126 42.3827 103.204 40.2044C104.167 39.1963 105.044 38.0724 105.964 37.018C106.234 36.7167 106.451 36.1258 106.819 36.23C107.273 36.3459 107.046 36.96 107.089 37.354C107.501 40.552 109.373 41.9888 112.317 41.3978C113.356 41.1893 114.244 40.6678 115.099 40.0537C116.528 39.0341 117.794 37.7943 119.244 36.5197C119.244 36.5197 120.392 35.2567 121.29 34.1328C121.301 34.1096 121.322 34.0865 121.333 34.0749C121.344 34.0633 121.355 34.0517 121.366 34.0401C121.355 34.0517 121.344 34.0633 121.333 34.0749C121.366 34.0285 121.409 33.9822 121.452 33.9358C122.643 32.6033 122.892 30.7147 123.076 28.9998C123.379 26.3464 122.513 23.9827 120.381 22.3489ZM121.008 27.3776C121.008 27.3776 120.781 26.8678 119.677 27.0068C118.476 27.1575 117.61 26.9141 117.632 26.0335C117.653 25.1413 118.487 24.6779 119.731 25.0139C120.987 25.3499 121.344 26.3 121.008 27.3776ZM96.5257 26.9373C96.0712 26.5202 95.5949 26.1262 95.1295 25.7207C94.8481 25.4774 94.5559 25.234 94.2745 24.9791C98.4523 24.5156 102.468 25.5585 106.537 26.3348C106.234 26.4391 105.921 26.5434 105.617 26.6476C104.091 27.1691 102.576 27.7368 101.082 28.3509C100.487 28.5943 99.8918 28.8492 99.3074 29.1157C99.0584 29.2315 98.777 29.3242 98.5714 29.0693C97.9436 28.2814 97.2509 27.5978 96.5257 26.9373Z" fill="white"/>
<path d="M96.5258 26.9366C96.0712 26.5197 95.595 26.1259 95.1296 25.7206C95.595 26.1259 96.0604 26.5313 96.5258 26.9366Z" fill="white"/>
<path d="M94.2745 24.9792C94.5559 25.2343 94.8482 25.4778 95.1296 25.7213C94.8373 25.4778 94.5559 25.2227 94.2745 24.9792Z" fill="white"/>
<path d="M105.617 26.636C104.091 27.1575 102.576 27.7254 101.082 28.3396C102.576 27.7254 104.091 27.1691 105.617 26.636Z" fill="white"/>
<path d="M96.5258 26.9366C96.0712 26.5197 95.595 26.1259 95.1296 25.7206C95.595 26.1259 96.0604 26.5313 96.5258 26.9366Z" fill="white"/>
<path d="M106.537 26.3348C106.234 26.4391 105.92 26.5434 105.617 26.6476C105.92 26.5318 106.234 26.4275 106.537 26.3348Z" fill="white"/>
<path d="M60.397 13.7398C59.477 12.6274 58.2432 12.9171 57.9401 14.3539C57.7453 15.2924 57.5288 16.4511 57.8643 17.2506C58.373 18.4441 57.8319 18.896 57.15 19.4637C56.8361 19.7186 56.5547 20.0199 56.2408 20.2748C54.9853 21.3061 53.7081 22.3141 52.4526 23.3454C52.247 23.5076 51.9656 23.693 52.1712 24.029C52.3444 24.3071 52.6041 24.1217 52.7881 23.9827C54.9312 22.3952 57.3015 21.1323 58.9792 18.9076C59.3796 18.3746 59.8126 18.305 60.3754 18.4557C61.6092 18.7917 62.1612 18.2819 62.1504 16.6481C62.053 15.5126 61.1547 14.6551 60.397 13.7398ZM59.2714 16.7871C59.2714 16.7871 58.7843 15.2808 59.1848 14.8174C59.5853 14.3655 60.6243 16.1383 60.7001 16.6018C60.7758 17.0536 59.2714 16.7871 59.2714 16.7871Z" fill="white"/>
</svg>
