<svg width="61" height="56" viewBox="0 0 61 56" fill="none" xmlns="http://www.w3.org/2000/svg">
<path d="M43.4501 26.6264C39.7851 26.2038 37.0363 24.6541 35.2038 21.9774C33.3713 19.3006 32.455 16.3421 32.455 13.1019C32.455 9.72075 33.5827 6.69182 35.8381 4.01509C37.9526 1.33837 41.1242 -1.73759e-06 45.3531 -1.36789e-06C47.0447 -1.22001e-06 48.8067 0.28176 50.6392 0.845283C52.4718 1.54969 54.1633 2.67673 55.7139 4.22641C57.2645 5.7761 58.5332 7.88931 59.5199 10.566C60.5066 13.2428 61 16.6239 61 20.7094C61 28.317 58.8151 35.1497 54.4452 41.2075C50.0754 47.4063 44.5073 52.3371 37.7411 56L31.6092 47.5472C35.2743 45.5748 38.5869 42.8981 41.5471 39.517C44.3664 36.2767 46.2694 32.1912 47.2561 27.2604L43.4501 26.6264ZM11.8409 26.6264C8.17585 26.2038 5.42707 24.6541 3.59456 21.9774C1.76204 19.3006 0.845783 16.3421 0.845783 13.1019C0.845783 9.72075 1.97349 6.69182 4.2289 4.01509C6.34334 1.33836 9.515 -4.50096e-06 13.7439 -4.13126e-06C15.4354 -3.98338e-06 17.1975 0.281757 19.03 0.84528C20.8625 1.54968 22.5541 2.67673 24.1047 4.22641C25.6553 5.7761 26.9239 7.88931 27.9107 10.566C28.8974 13.2428 29.3908 16.6239 29.3908 20.7094C29.3908 28.317 27.2058 35.1497 22.836 41.2075C18.4661 47.4063 12.8981 52.3371 6.13189 56L-3.07573e-06 47.5472C3.66503 45.5748 6.97767 42.8981 9.93789 39.517C12.7571 36.2767 14.6601 32.1912 15.6469 27.2604L11.8409 26.6264Z" fill="#0A993C"/>
</svg>
