<svg width="61" height="56" viewBox="0 0 61 56" fill="none" xmlns="http://www.w3.org/2000/svg">
<path d="M17.5499 29.3736C21.2149 29.7962 23.9637 31.3459 25.7962 34.0226C27.6287 36.6994 28.545 39.6579 28.545 42.8981C28.545 46.2792 27.4173 49.3082 25.1619 51.9849C23.0474 54.6616 19.8758 56 15.6469 56C13.9553 56 12.1933 55.7182 10.3608 55.1547C8.52825 54.4503 6.8367 53.3233 5.28611 51.7736C3.73552 50.2239 2.46685 48.1107 1.48011 45.434C0.49337 42.7572 0 39.3761 0 35.2906C0 27.683 2.18492 20.8503 6.55478 14.7925C10.9246 8.59371 16.4927 3.66289 23.2589 0L29.3908 8.45282C25.7257 10.4251 22.4131 13.1019 19.4529 16.483C16.6336 19.7233 14.7306 23.8088 13.7439 28.7396L17.5499 29.3736ZM49.1591 29.3736C52.8242 29.7962 55.5729 31.3459 57.4054 34.0226C59.238 36.6994 60.1542 39.6579 60.1542 42.8981C60.1542 46.2792 59.0265 49.3082 56.7711 51.9849C54.6567 54.6616 51.485 56 47.2561 56C45.5646 56 43.8025 55.7182 41.97 55.1547C40.1375 54.4503 38.4459 53.3233 36.8953 51.7736C35.3447 50.2239 34.0761 48.1107 33.0893 45.434C32.1026 42.7572 31.6092 39.3761 31.6092 35.2906C31.6092 27.683 33.7942 20.8503 38.164 14.7925C42.5339 8.59371 48.1019 3.66289 54.8681 0L61 8.45282C57.335 10.4251 54.0223 13.1019 51.0621 16.483C48.2429 19.7233 46.3399 23.8088 45.3531 28.7396L49.1591 29.3736Z" fill="#0A993C"/>
</svg>
